<svg height="20" viewBox="0 0 14 17" width="20" xmlns="http://www.w3.org/2000/svg">
<path d="M13.545 13.04c-.24.55-.52 1.06-.85 1.53-.45.64-.82 1.08-1.12 1.31-.45.41-.93.62-1.44.63-.37 
0-.82-.1-1.36-.32-.55-.21-1.05-.32-1.5-.32-.47 
0-.98.11-1.53.32-.55.21-.99.32-1.31.33-.49.02-.98-.2-1.47-.64-.32-.27-.7-.74-1.14-1.42-.49-.75-.89-1.61-1.19-2.59-.33-1.09-.5-2.15-.5-3.18 
0-1.17.25-2.18.75-3.02.39-.68.91-1.22 1.55-1.63.64-.41 1.34-.63 
2.09-.64.41 0 .95.12 1.63.37.67.25 1.1.38 1.29.38.15 
0 .65-.16 1.5-.49.81-.3 1.49-.43 2.04-.39 1.51.12 
2.65.72 3.43 1.82-1.36.83-2.03 2-2.03 3.5 0 
1.17.43 2.15 1.28 2.93.38.36.8.64 1.27.84-.1.29-.21.57-.34.84zM9.79 
0c0 .85-.31 1.64-.93 2.37-.75.87-1.65 1.37-2.63 
1.29a2.9 2.9 0 0 1-.02-.36c0-.82.36-1.7 
.98-2.39C7.93.68 8.77.22 9.7.17 9.77.11 9.82.06 9.86 
0h-.07z" fill="currentColor"></path>
</svg>
